<svg width="26" height="30" viewBox="0 0 26 30" fill="none" xmlns="http://www.w3.org/2000/svg">
<path d="M13 0C13 0 0 10.6671 0 17.2747C0 18.9928 0.684781 20.6405 1.90377 21.8554C3.12275 23.0702 4.77609 23.7527 6.5 23.7527C7.51167 23.7392 8.50893 23.5117 9.42587 23.0855C10.3428 22.6593 11.1586 22.044 11.8192 21.2803L8.66667 29.1511H17.3333L14.1808 21.2803C14.8414 22.044 15.6572 22.6593 16.5741 23.0855C17.4911 23.5117 18.4883 23.7392 19.5 23.7527C21.2239 23.7527 22.8772 23.0702 24.0962 21.8554C25.3152 20.6405 26 18.9928 26 17.2747C26 10.6671 13 0 13 0Z" fill="white"/>
</svg>
